<svg viewBox="0 0 32 32" xmlns="http://www.w3.org/2000/svg"><g id="Ikon"><path d="m24 8h-16a1.0055 1.0055 0 0 0 -.9985 1.05l.9 18.1074a2.9988 2.9988 0 0 0 2.996 2.8426h10.205a2.9992 2.9992 0 0 0 2.9956-2.8452l.9-18.105a1.0055 1.0055 0 0 0 -.9981-1.0498z" fill="#bdbdbd" style="fill: rgb(237, 18, 18);"></path><path d="m24.5 5h-3.5161a2.9966 2.9966 0 0 0 -2.9981-3h-3.9858a3.0033 3.0033 0 0 0 -3 3h-3.5a2.5 2.5 0 0 0 0 5h17a2.5 2.5 0 0 0 0-5zm-10.5-1h3.9858a.9993.9993 0 0 1 1 1h-5.9858a1.0013 1.0013 0 0 1 1-1z" fill="#616161" style="fill: rgb(29, 27, 27);"></path><path d="m17.4141 19 2.2929-2.293a1 1 0 0 0 -1.414-1.414l-2.293 2.2929-2.293-2.2929c-.9039-.9312-2.3449.5106-1.414 1.414l2.2929 2.293-2.2929 2.293a1 1 0 0 0 1.414 1.414l2.293-2.2929 2.293 2.2929a1 1 0 0 0 1.414-1.414z" fill="#f44336" style="fill: rgb(234, 221, 220);"></path></g></svg>